<?xml version="1.0" encoding="UTF-8"?>
<svg id="Layer_2" data-name="Layer 2" xmlns="http://www.w3.org/2000/svg" viewBox="0 0 500 526.12">
  <defs>
    <style>
      .cls-1 {
        fill: #177d83;
      }
    </style>
  </defs>
  <g id="Layer_1" data-name="Layer 1">
    <g>
      <path class="cls-1" d="M257.4,346.5c-15.7-3.04-28.93.25-39.68,9.87-10.77,9.61-18.18,24.97-22.27,46.06-5.98,30.89-.42,57.4,16.66,79.53,17.08,22.12,41.81,36.33,74.17,42.59l8.09,1.57,5.95-82.03c2.14-32.15-.55-55.7-8.08-70.62-7.54-14.94-19.16-23.93-34.84-26.97Z"/>
      <path class="cls-1" d="M153.04,281.76c-13.71-4.52-30.71-3.26-51.02,3.75-29.74,10.27-49.92,28.33-60.54,54.19-10.62,25.86-10.56,54.37.2,85.53l2.69,7.79,74.01-35.86c28.91-14.22,47.96-28.33,57.12-42.31,9.17-14,11.15-28.56,5.93-43.66-5.22-15.12-14.68-24.93-28.39-29.43Z"/>
      <path class="cls-1" d="M156.58,146.13c-23.76-20.62-49.5-29.07-77.2-25.34-27.7,3.73-52.37,18.04-73.97,42.94l-5.4,6.22,68.06,46.17c26.77,17.93,48.51,27.37,65.2,28.31,16.71.94,30.3-4.62,40.78-16.69,10.48-12.08,14.25-25.18,11.29-39.3-2.94-14.13-12.53-28.23-28.76-42.31Z"/>
      <path class="cls-1" d="M213.73,1.57l-8.09-1.57-5.95,82.03c-2.14,32.15.55,55.7,8.08,70.62,7.54,14.94,19.16,23.93,34.84,26.97,15.7,3.04,28.93-.25,39.68-9.87,10.77-9.61,18.18-24.97,22.27-46.06,5.98-30.89.42-57.4-16.66-79.53C270.81,22.03,246.09,7.83,213.73,1.57Z"/>
      <path class="cls-1" d="M346.96,244.37c13.71,4.52,30.71,3.26,51.02-3.75,29.74-10.27,49.92-28.33,60.54-54.19,10.62-25.86,10.56-54.37-.2-85.53l-2.69-7.79-74.01,35.86c-28.91,14.22-47.96,28.33-57.12,42.31-9.17,14-11.15,28.56-5.93,43.66,5.22,15.12,14.68,24.93,28.39,29.43Z"/>
      <path class="cls-1" d="M431.94,310c-26.77-17.93-48.51-27.37-65.2-28.31-16.71-.94-30.3,4.62-40.78,16.69-10.48,12.08-14.25,25.18-11.29,39.3,2.94,14.13,12.53,28.23,28.76,42.31,23.76,20.62,49.5,29.07,77.2,25.34,27.7-3.73,52.37-18.04,73.97-42.94l5.4-6.22-68.06-46.17Z"/>
    </g>
  </g>
</svg>