<svg id="Layer_2" data-name="Layer 2" xmlns="http://www.w3.org/2000/svg" viewBox="0 0 1303.72 214.67">
  <defs>
    <style>
      .cls-1 {
        fill: #fff;
      }
    </style>
  </defs>
  <g id="Layer_1" data-name="Layer 1">
    <g>
      <path class="cls-1" d="M92.66,124.74c-5.65-1.09-10.41.09-14.29,3.55-3.88,3.46-6.55,8.99-8.02,16.58-2.15,11.12-.15,20.66,6,28.63,6.15,7.96,15.05,13.08,26.7,15.33l2.91.56,2.14-29.53c.77-11.57-.2-20.05-2.91-25.42-2.71-5.38-6.9-8.62-12.54-9.71Z"/>
      <path class="cls-1" d="M55.1,101.43c-4.94-1.63-11.06-1.18-18.37,1.35-10.71,3.7-17.97,10.2-21.8,19.51-3.82,9.31-3.8,19.57.07,30.79l.97,2.8,26.64-12.91c10.41-5.12,17.27-10.2,20.56-15.23,3.3-5.04,4.01-10.28,2.14-15.72-1.88-5.44-5.28-8.97-10.22-10.6Z"/>
      <path class="cls-1" d="M56.37,52.61c-8.55-7.42-17.82-10.46-27.79-9.12-9.97,1.34-18.85,6.5-26.63,15.46l-1.94,2.24,24.5,16.62c9.64,6.45,17.46,9.85,23.47,10.19,6.02.34,10.91-1.66,14.68-6.01,3.77-4.35,5.13-9.06,4.07-14.15-1.06-5.09-4.51-10.16-10.35-15.23Z"/>
      <path class="cls-1" d="M76.94.56l-2.91-.56-2.14,29.53c-.77,11.57.2,20.05,2.91,25.42,2.71,5.38,6.9,8.62,12.54,9.71,5.65,1.09,10.41-.09,14.29-3.55,3.88-3.46,6.55-8.99,8.02-16.58,2.15-11.12.15-20.66-6-28.63-6.15-7.96-15.05-13.08-26.7-15.33Z"/>
      <path class="cls-1" d="M124.91,87.97c4.94,1.63,11.06,1.18,18.37-1.35,10.71-3.7,17.97-10.2,21.8-19.51,3.82-9.31,3.8-19.57-.07-30.79l-.97-2.8-26.64,12.91c-10.41,5.12-17.27,10.2-20.56,15.23-3.3,5.04-4.01,10.28-2.14,15.72,1.88,5.44,5.28,8.97,10.22,10.6Z"/>
      <path class="cls-1" d="M132.03,101.41c-6.02-.34-10.91,1.66-14.68,6.01-3.77,4.35-5.13,9.06-4.07,14.15,1.06,5.09,4.51,10.16,10.35,15.23,8.55,7.42,17.82,10.46,27.79,9.12,9.97-1.34,18.85-6.5,26.63-15.46l1.94-2.24-24.5-16.62c-9.64-6.45-17.46-9.85-23.47-10.19Z"/>
      <path class="cls-1" d="M329.17,93.42c-6.42-2.85-14.76-5.77-25.02-8.77-7.98-2.42-14.19-4.52-18.6-6.31-4.42-1.78-8.13-4.2-11.12-7.27-2.99-3.06-4.49-7.02-4.49-11.87,0-7.41,2.49-13.18,7.49-17.32,4.99-4.13,11.62-6.2,19.89-6.2,9.84,0,17.43,2.53,22.77,7.59,4.49,4.25,7.95,10.69,10.38,19.32.86,3.04,3.59,5.16,6.75,5.16h5.06c3.87,0,7-3.13,7-7V27.71c0-3.87-3.13-7-7-7h-1.51c-3.46,0-6.41,2.53-6.92,5.96l-.31,2.05c-.27,1.8-2.47,2.56-3.77,1.28-3.08-3.03-7.09-5.67-12.03-7.9-6.77-3.06-14.01-4.6-21.71-4.6-9.41,0-17.75,1.85-25.02,5.56-7.27,3.71-12.87,8.77-16.79,15.18-3.92,6.42-5.88,13.55-5.88,21.38,0,8.98,2.17,16.25,6.52,21.81,4.35,5.56,9.62,9.73,15.83,12.51,6.2,2.78,14.36,5.67,24.49,8.66,8.13,2.43,14.47,4.6,19.03,6.52,4.56,1.92,8.41,4.53,11.55,7.81,3.13,3.28,4.71,7.48,4.71,12.62,0,7.56-2.5,13.47-7.49,17.75-4.99,4.28-12.12,6.42-21.38,6.42-10.12,0-18.5-2.67-25.13-8.02-5.58-4.5-9.68-11.06-12.28-19.66-.9-2.98-3.61-5.04-6.72-5.04h-5.33c-3.87,0-7,3.13-7,7v34.54c0,3.87,3.13,7,7,7h1.48c3.48,0,6.43-2.55,6.93-6l.74-5.1c.27-1.87,2.59-2.59,3.87-1.2,3.55,3.88,8.11,7.09,13.66,9.62,7.34,3.35,15.79,5.03,25.34,5.03s18.6-1.92,25.88-5.77c7.27-3.85,12.79-9.02,16.57-15.5,3.78-6.49,5.67-13.65,5.67-21.49,0-9.41-2.25-17-6.74-22.77-4.49-5.77-9.94-10.08-16.36-12.94Z"/>
      <path class="cls-1" d="M430.79,68.93c-6.2-3.35-13.44-5.02-21.71-5.02-12.4,0-22.13,3.1-29.19,9.3-4.48,3.94-7.77,8.5-9.87,13.68-1.84,4.56,1.62,9.53,6.53,9.53h5.03c2.78,0,5.25-1.67,6.41-4.2,1.28-2.79,3.21-5.13,5.79-7.02,3.77-2.78,8.87-4.17,15.29-4.17s11.83,1.92,15.83,5.77c3.99,3.85,5.99,9.13,5.99,15.83v.92c0,1.06-.79,1.95-1.85,2.07l-23.82,2.78c-14.26,1.85-24.84,5.53-31.76,11.01-6.92,5.49-10.37,12.94-10.37,22.35s3.21,16.43,9.62,21.92c6.42,5.49,14.9,8.23,25.45,8.23,7.56,0,14.4-1.64,20.53-4.92,3.97-2.12,7.31-4.66,10.02-7.62,1.38-1.5,3.88-.5,3.88,1.54v1.87c0,3.87,3.13,7,7,7h3.54c3.87,0,7-3.13,7-7v-60.58c0-7.13-1.68-13.61-5.02-19.46-3.35-5.84-8.13-10.44-14.33-13.79ZM422.98,146.24c-5.28,5.99-12.4,8.98-21.38,8.98-6.13,0-10.84-1.25-14.12-3.74-3.28-2.49-4.92-6.02-4.92-10.59s1.89-8.3,5.67-11.23c3.77-2.92,10.23-4.95,19.35-6.09l20.97-2.5c1.24-.15,2.34.82,2.34,2.07,0,9.41-2.64,17.11-7.91,23.1Z"/>
      <path class="cls-1" d="M553.37,159.39c-7.35-5.77-17.14-8.66-29.41-8.66h-20.74c-12.69,0-19.03-3.49-19.03-10.48,0-3.69,1.59-6.93,4.78-9.71.69-.61,1.69-.71,2.52-.3,6.79,3.4,14.34,5.09,22.64,5.09,7.84,0,15.04-1.5,21.6-4.49,6.56-2.99,11.76-7.2,15.61-12.62,3.85-5.42,5.77-11.69,5.77-18.82,0-6.32-1.64-12.06-4.9-17.21-.6-.94-.4-2.19.45-2.91l9.15-7.7c3.04-2.56,3.34-7.13.67-10.07l-1.41-1.55c-2.56-2.81-6.88-3.06-9.75-.58l-10.98,9.49c-.71.61-1.72.71-2.55.26-6.82-3.63-14.71-5.44-23.65-5.44-7.84,0-15.04,1.5-21.6,4.49-6.56,2.99-11.76,7.2-15.61,12.62-3.85,5.42-5.77,11.62-5.77,18.61s1.84,13.12,5.53,18.21c.69.95.52,2.28-.38,3.03-3.4,2.85-5.91,5.75-7.51,8.7-1.85,3.42-2.78,7.34-2.78,11.76,0,3.71.86,7.16,2.57,10.37,1.2,2.26,2.79,4.18,4.77,5.76,1.17.94,1.14,2.72-.09,3.6-7.12,5.1-10.67,12.85-10.67,23.25,0,9.27,3.56,16.68,10.69,22.24,7.13,5.56,16.82,8.34,29.08,8.34h21.6c12.26,0,22.06-2.92,29.41-8.77,7.34-5.85,11.01-13.62,11.01-23.31s-3.67-17.43-11.01-23.2ZM496.81,85.29c4.56-3.28,10.34-4.92,17.32-4.92s12.76,1.64,17.32,4.92c4.56,3.28,6.84,7.99,6.84,14.11s-2.28,11.05-6.84,14.33c-4.56,3.28-10.34,4.92-17.32,4.92s-12.76-1.64-17.32-4.92c-4.56-3.28-6.84-8.05-6.84-14.33s2.28-10.83,6.84-14.11ZM539.37,194.46c-3.71,2.78-9.13,4.17-16.25,4.17h-20.1c-6.7,0-11.87-1.43-15.5-4.28-3.63-2.85-5.45-6.7-5.45-11.55s1.82-8.95,5.45-11.87c3.64-2.92,8.8-4.38,15.5-4.38h20.1c7.13,0,12.54,1.46,16.25,4.38,3.71,2.92,5.56,6.88,5.56,11.87s-1.85,8.88-5.56,11.66Z"/>
      <path class="cls-1" d="M669.87,105.64c-1.6-8.84-5.27-16.68-11.01-23.54-5.73-6.85-12.78-11.92-21.12-15.19-8.35-3.27-16.94-4.1-25.77-2.5-9.12,1.65-17.11,5.53-23.97,11.63-6.86,6.1-11.85,13.6-14.94,22.49-3.1,8.9-3.75,18.25-1.98,28.07,1.78,9.82,5.69,18.39,11.72,25.69,6.03,7.31,13.33,12.62,21.9,15.92,8.57,3.3,17.41,4.12,26.53,2.47,7.29-1.32,13.78-4.09,19.47-8.31,6.51-4.83,12.76-11.95,16.48-20.54,2.24-5.17-2.1-10.75-7.64-9.75l-4.33.79c-2.21.4-4.09,1.83-5.05,3.86-3.66,7.71-10.89,14.89-22.01,16.91-8.28,1.5-15.74.07-22.41-4.31-6.03-3.96-10.43-9.85-13.18-17.67-.46-1.3.36-2.72,1.72-2.96l70.26-12.74c3.65-.66,6.13-4.05,5.71-7.74-.1-.86-.23-1.71-.38-2.57ZM647.65,104.23l-55.54,10.07c-1.42.26-2.74-.88-2.65-2.33.45-7.6,2.77-14.08,6.97-19.43,4.71-5.99,10.92-9.69,18.64-11.09,8-1.45,15.18.04,21.56,4.46,5.61,3.89,9.84,8.95,12.68,15.19.6,1.33-.22,2.87-1.66,3.13Z"/>
      <path class="cls-1" d="M805.92,155.37l-9.28-1.88c-.6-.12-1.12-.48-1.45-1l-29.86-47.09c9.69-2.71,17.5-7.91,23.42-15.61,5.91-7.7,8.87-16.39,8.87-26.09,0-7.98-2.03-15.32-6.1-22.03-4.06-6.7-9.66-12.01-16.79-15.93-7.13-3.92-15.18-5.88-24.16-5.88h-67.85c-3.87,0-7,3.13-7,7v.18c0,3.39,2.43,6.29,5.77,6.89l10.34,1.85c1.07.19,1.85,1.12,1.85,2.21v113.43c0,1.09-.78,2.02-1.85,2.21l-10.34,1.85c-3.34.6-5.77,3.5-5.77,6.89v.18c0,3.87,3.13,7,7,7h42.24c3.87,0,7-3.13,7-7v-.22c0-3.37-2.41-6.27-5.73-6.88l-9.76-1.81c-1.06-.2-1.84-1.13-1.84-2.21v-41.65c0-1.24,1.01-2.25,2.25-2.25h25.37c.78,0,1.5.4,1.91,1.06l26.08,42.15c.83,1.33.06,3.08-1.48,3.39l-6.35,1.25c-3.28.65-5.65,3.52-5.65,6.87v.29c0,3.87,3.13,7,7,7h40.74c3.87,0,7-3.13,7-7v-.32c0-3.33-2.35-6.2-5.61-6.86ZM716.9,89.57c-1.24,0-2.25-1.01-2.25-2.25v-47.26c0-1.24,1.01-2.25,2.25-2.25h31.11c8.13,0,14.83,2.46,20.1,7.38,5.27,4.92,7.91,11.09,7.91,18.5s-2.64,13.58-7.91,18.5c-5.28,4.92-11.98,7.38-20.1,7.38h-31.11Z"/>
      <path class="cls-1" d="M1008.4,70.86c-7.35-4.77-15.29-7.16-23.84-7.16-7.13,0-13.76,1.53-19.89,4.6-4.31,2.15-8.08,4.89-11.33,8.2-1.41,1.44-3.85.45-3.85-1.56v-2.1c0-3.87-3.13-7-7-7h-21.75c-3.61,0-6.54,2.93-6.54,6.54v.25c0,3.13,2.22,5.83,5.3,6.42l9.56,1.84c1.06.2,1.82,1.13,1.82,2.21v114.17c0,1.05-.73,1.97-1.76,2.19l-7.65,1.69c-3,.66-5.13,3.32-5.13,6.38v.4c0,3.61,2.93,6.54,6.54,6.54h42.96c3.61,0,6.54-2.93,6.54-6.54,0-3.25-2.38-6-5.59-6.47l-14.51-2.11c-1.1-.16-1.92-1.11-1.92-2.22v-35.91c0-1.98,2.37-2.98,3.8-1.61,3.21,3.08,6.9,5.65,11.06,7.7,5.91,2.92,12.3,4.38,19.14,4.38,8.55,0,16.54-2.39,23.95-7.16,7.41-4.77,13.33-11.3,17.75-19.57,4.42-8.27,6.63-17.32,6.63-27.16s-2.21-19.1-6.63-27.37c-4.42-8.27-10.3-14.79-17.64-19.57ZM1008.61,136.29c-2.78,5.35-6.56,9.52-11.33,12.51-4.78,2.99-10.09,4.49-15.93,4.49s-11.16-1.46-15.93-4.38c-4.78-2.92-8.52-7.09-11.23-12.51-2.71-5.42-4.06-11.62-4.06-18.61s1.35-13.18,4.06-18.6c2.71-5.42,6.45-9.62,11.23-12.62,4.77-2.99,10.08-4.49,15.93-4.49s11.16,1.5,15.93,4.49c4.77,2.99,8.55,7.2,11.33,12.62,2.78,5.42,4.17,11.62,4.17,18.6s-1.39,13.15-4.17,18.5Z"/>
      <path class="cls-1" d="M1123.94,70.86c-7.77-4.77-16.29-7.16-25.56-7.16s-17.79,2.39-25.56,7.16c-7.77,4.78-13.97,11.26-18.6,19.46-4.63,8.2-6.95,17.29-6.95,27.27s2.32,19.11,6.95,27.37c4.63,8.27,10.83,14.79,18.6,19.57,7.77,4.78,16.29,7.16,25.56,7.16s17.78-2.39,25.56-7.16c7.77-4.77,13.97-11.3,18.6-19.57,4.63-8.27,6.95-17.39,6.95-27.37s-2.32-19.07-6.95-27.27c-4.63-8.2-10.84-14.68-18.6-19.46ZM1125.55,136.19c-2.71,5.42-6.45,9.62-11.23,12.62-4.78,2.99-10.09,4.49-15.93,4.49s-11.16-1.5-15.93-4.49c-4.78-2.99-8.52-7.2-11.23-12.62-2.71-5.42-4.06-11.62-4.06-18.61s1.35-13.18,4.06-18.6c2.71-5.42,6.45-9.59,11.23-12.51,4.77-2.92,10.08-4.38,15.93-4.38s11.15,1.5,15.93,4.49c4.78,2.99,8.52,7.16,11.23,12.51,2.71,5.35,4.06,11.51,4.06,18.5s-1.36,13.19-4.06,18.61Z"/>
      <path class="cls-1" d="M1227.31,63.9c-1.54-.14-3.22-.2-5.04-.2-6.7,0-12.91,1.71-18.6,5.13-3.37,2.02-6.19,4.29-8.46,6.81-1.39,1.54-3.94.61-3.94-1.47v-1.68c0-3.67-2.98-6.65-6.65-6.65h-21.12c-3.68,0-6.65,2.98-6.65,6.65v.04c0,3.19,2.26,5.93,5.4,6.53l9.46,1.82c1.06.2,1.82,1.13,1.82,2.21v69.26c0,1.05-.73,1.97-1.76,2.19l-7.56,1.67c-3.05.67-5.22,3.38-5.22,6.5v.19c0,3.67,2.98,6.65,6.65,6.65h38.02c3.68,0,6.65-2.98,6.65-6.65,0-3.21-2.29-5.96-5.44-6.54l-10.04-1.86c-1.06-.2-1.84-1.13-1.84-2.21v-37.48c0-9.98,2.49-17.75,7.48-23.31,4.99-5.56,12.19-8.34,21.6-8.34,1.51,0,2.96.03,4.38.08,3.79.15,6.96-2.85,6.96-6.64v-6.06c0-3.46-2.64-6.33-6.08-6.63Z"/>
      <path class="cls-1" d="M1296.28,152.89c-1.73.13-3.38.19-4.96.19-9.27,0-13.9-5.42-13.9-16.25v-50.79c0-1.24,1.01-2.25,2.25-2.25h15.77c3.87,0,7-3.13,7-7v-3.96c0-3.87-3.13-7-7-7h-15.77c-1.24,0-2.25-1.01-2.25-2.25v-24.97c0-3.87-3.13-7-7-7h-5.46c-3.87,0-7,3.13-7,7v24.97c0,1.24-1.01,2.25-2.25,2.25h-8.29c-3.87,0-7,3.13-7,7v3.96c0,3.87,3.13,7,7,7h8.29c1.24,0,2.25,1.01,2.25,2.25v52.93c0,10.84,2.74,19,8.23,24.49,5.49,5.49,13.08,8.23,22.77,8.23,3.16,0,6.05-.17,8.67-.5,3.49-.44,6.09-3.43,6.09-6.95v-4.37c0-4.04-3.41-7.28-7.44-6.99Z"/>
      <path class="cls-1" d="M909.26,105.64c-1.6-8.84-5.27-16.68-11.01-23.54-5.73-6.85-12.78-11.92-21.12-15.19-8.35-3.27-16.94-4.1-25.77-2.5-9.12,1.65-17.11,5.53-23.97,11.63-6.86,6.1-11.85,13.6-14.94,22.49-3.1,8.9-3.76,18.25-1.98,28.07,1.78,9.82,5.69,18.39,11.72,25.69,6.03,7.31,13.33,12.62,21.9,15.92,8.57,3.3,17.41,4.12,26.53,2.47,7.29-1.32,13.78-4.09,19.47-8.31,6.51-4.83,12.76-11.95,16.48-20.54,2.24-5.17-2.1-10.75-7.64-9.75l-4.33.79c-2.21.4-4.09,1.83-5.05,3.86-3.66,7.71-10.89,14.89-22.01,16.91-8.28,1.5-15.74.07-22.41-4.31-6.03-3.96-10.43-9.85-13.18-17.67-.46-1.3.36-2.72,1.72-2.96l70.26-12.74c3.65-.66,6.13-4.05,5.71-7.74-.1-.86-.23-1.71-.38-2.57ZM887.04,104.23l-55.54,10.07c-1.42.26-2.74-.88-2.65-2.33.45-7.6,2.77-14.08,6.97-19.43,4.71-5.99,10.92-9.69,18.64-11.09,8-1.45,15.18.04,21.56,4.46,5.61,3.89,9.84,8.95,12.68,15.19.6,1.33-.22,2.87-1.66,3.13Z"/>
    </g>
  </g>
</svg>
